<svg xmlns="http://www.w3.org/2000/svg" width="24" height="24" viewBox="0 0 24 24" fill="none" stroke="hsl(250 84% 65%)" stroke-width="2" stroke-linecap="round" stroke-linejoin="round" class="lucide lucide-car">
  <path d="M19 17h2c.6 0 1-.4 1-1v-3c0-.9-.7-1.7-1.5-1.9C18.7 10.6 16 10 16 10s-1.3-1.4-2.2-2.3c-.5-.4-1.1-.7-1.8-.7H5c-.6 0-1.1.4-1.4.9l-1.4 2.9A3.7 3.7 0 0 0 2 12v4c0 .6.4 1 1 1h2"/>
  <path d="M7 17h10"/>
  <path d="M5.8 17a1 1 0 0 0 .8 1h.8a1 1 0 0 0 .8-1H5.8Z"/>
  <path d="M16.8 17a1 1 0 0 0 .8 1h.8a1 1 0 0 0 .8-1h-2.4Z"/>
  <circle cx="8" cy="17" r="2"/>
  <circle cx="16" cy="17" r="2"/>
</svg>